# Tiled2Unity generated file. Do not modify by hand.
# Wavefront file for 'Chai++map_mesh_0005.obj'

# Vertices (Count = 220)
v -36 -2.4 -0.08375
v -37.33 -2.4 -0.08375
v -37.33 -1.41 -0.08375
v -36 -1.41 -0.08375
v -35.4 -2.7 -0.09625
v -36.73 -2.7 -0.09625
v -36.73 -1.71 -0.09625
v -35.4 -1.71 -0.09625
v -34.8 -3 -0.10875
v -36.13 -3 -0.10875
v -36.13 -2.01 -0.10875
v -34.8 -2.01 -0.10875
v -34.2 -3.3 -0.12125
v -35.53 -3.3 -0.12125
v -35.53 -2.31 -0.12125
v -34.2 -2.31 -0.12125
v -33.6 -3.6 -0.13375
v -34.93 -3.6 -0.13375
v -34.93 -2.61 -0.13375
v -33.6 -2.61 -0.13375
v -33 -3.9 -0.14625
v -34.33 -3.9 -0.14625
v -34.33 -2.91 -0.14625
v -33 -2.91 -0.14625
v -32.4 -4.2 -0.15875
v -33.73 -4.2 -0.15875
v -33.73 -3.21 -0.15875
v -32.4 -3.21 -0.15875
v -31.8 -4.5 -0.17125
v -33.13 -4.5 -0.17125
v -33.13 -3.51 -0.17125
v -31.8 -3.51 -0.17125
v -31.2 -4.8 -0.18375
v -32.53 -4.8 -0.18375
v -32.53 -3.81 -0.18375
v -31.2 -3.81 -0.18375
v -30.6 -5.1 -0.19625
v -31.93 -5.1 -0.19625
v -31.93 -4.11 -0.19625
v -30.6 -4.11 -0.19625
v -30 -5.4 -0.20875
v -31.33 -5.4 -0.20875
v -31.33 -4.41 -0.20875
v -30 -4.41 -0.20875
v -29.4 -5.7 -0.22125
v -30.73 -5.7 -0.22125
v -30.73 -4.71 -0.22125
v -29.4 -4.71 -0.22125
v -28.8 -6 -0.23375
v -30.13 -6 -0.23375
v -30.13 -5.01 -0.23375
v -28.8 -5.01 -0.23375
v -28.2 -6.3 -0.24625
v -29.53 -6.3 -0.24625
v -29.53 -5.31 -0.24625
v -28.2 -5.31 -0.24625
v -27.6 -6.6 -0.25875
v -28.93 -6.6 -0.25875
v -28.93 -5.61 -0.25875
v -27.6 -5.61 -0.25875
v -27 -6.9 -0.27125
v -28.33 -6.9 -0.27125
v -28.33 -5.91 -0.27125
v -27 -5.91 -0.27125
v -26.4 -7.2 -0.28375
v -27.73 -7.2 -0.28375
v -27.73 -6.21 -0.28375
v -26.4 -6.21 -0.28375
v -25.8 -7.5 -0.29625
v -27.13 -7.5 -0.29625
v -27.13 -6.51 -0.29625
v -25.8 -6.51 -0.29625
v -25.2 -7.8 -0.30875
v -26.53 -7.8 -0.30875
v -26.53 -6.81 -0.30875
v -25.2 -6.81 -0.30875
v -24.6 -8.099999 -0.32125
v -25.93 -8.099999 -0.32125
v -25.93 -7.11 -0.32125
v -24.6 -7.11 -0.32125
v -24 -8.4 -0.33375
v -25.33 -8.4 -0.33375
v -25.33 -7.41 -0.33375
v -24 -7.41 -0.33375
v -23.4 -8.7 -0.34625
v -24.73 -8.7 -0.34625
v -24.73 -7.71 -0.34625
v -23.4 -7.71 -0.34625
v -22.8 -9 -0.35875
v -24.13 -9 -0.35875
v -24.13 -8.01 -0.35875
v -22.8 -8.01 -0.35875
v -22.2 -9.3 -0.37125
v -23.53 -9.3 -0.37125
v -23.53 -8.309999 -0.37125
v -22.2 -8.309999 -0.37125
v -21.6 -9.599999 -0.38375
v -22.93 -9.599999 -0.38375
v -22.93 -8.61 -0.38375
v -21.6 -8.61 -0.38375
v -21 -9.9 -0.39625
v -22.33 -9.9 -0.39625
v -22.33 -8.91 -0.39625
v -21 -8.91 -0.39625
v -20.4 -10.2 -0.40875
v -21.73 -10.2 -0.40875
v -21.73 -9.21 -0.40875
v -20.4 -9.21 -0.40875
v -19.8 -10.5 -0.42125
v -21.13 -10.5 -0.42125
v -21.13 -9.51 -0.42125
v -19.8 -9.51 -0.42125
v -19.2 -10.8 -0.43375
v -20.53 -10.8 -0.43375
v -20.53 -9.809999 -0.43375
v -19.2 -9.809999 -0.43375
v -18.6 -11.1 -0.44625
v -19.93 -11.1 -0.44625
v -19.93 -10.11 -0.44625
v -18.6 -10.11 -0.44625
v -18 -11.4 -0.45875
v -19.33 -11.4 -0.45875
v -19.33 -10.41 -0.45875
v -18 -10.41 -0.45875
v -17.4 -11.7 -0.47125
v -18.73 -11.7 -0.47125
v -18.73 -10.71 -0.47125
v -17.4 -10.71 -0.47125
v -16.8 -12 -0.48375
v -18.13 -12 -0.48375
v -18.13 -11.01 -0.48375
v -16.8 -11.01 -0.48375
v -16.2 -12.3 -0.49625
v -17.53 -12.3 -0.49625
v -17.53 -11.31 -0.49625
v -16.2 -11.31 -0.49625
v -15.6 -12.6 -0.50875
v -16.93 -12.6 -0.50875
v -16.93 -11.61 -0.50875
v -15.6 -11.61 -0.50875
v -15 -12.9 -0.52125
v -16.33 -12.9 -0.52125
v -16.33 -11.91 -0.52125
v -15 -11.91 -0.52125
v -14.4 -13.2 -0.53375
v -15.73 -13.2 -0.53375
v -15.73 -12.21 -0.53375
v -14.4 -12.21 -0.53375
v -13.8 -13.5 -0.54625
v -15.13 -13.5 -0.54625
v -15.13 -12.51 -0.54625
v -13.8 -12.51 -0.54625
v -13.2 -13.8 -0.55875
v -14.53 -13.8 -0.55875
v -14.53 -12.81 -0.55875
v -13.2 -12.81 -0.55875
v -12.6 -14.1 -0.57125
v -13.93 -14.1 -0.57125
v -13.93 -13.11 -0.57125
v -12.6 -13.11 -0.57125
v -12 -14.4 -0.58375
v -13.33 -14.4 -0.58375
v -13.33 -13.41 -0.58375
v -12 -13.41 -0.58375
v -11.4 -14.7 -0.59625
v -12.73 -14.7 -0.59625
v -12.73 -13.71 -0.59625
v -11.4 -13.71 -0.59625
v -10.8 -15 -0.60875
v -12.13 -15 -0.60875
v -12.13 -14.01 -0.60875
v -10.8 -14.01 -0.60875
v -10.2 -15.3 -0.62125
v -11.53 -15.3 -0.62125
v -11.53 -14.31 -0.62125
v -10.2 -14.31 -0.62125
v -9.599999 -15.6 -0.63375
v -10.93 -15.6 -0.63375
v -10.93 -14.61 -0.63375
v -9.599999 -14.61 -0.63375
v -9 -15.9 -0.64625
v -10.33 -15.9 -0.64625
v -10.33 -14.91 -0.64625
v -9 -14.91 -0.64625
v -8.4 -16.2 -0.65875
v -9.73 -16.2 -0.65875
v -9.73 -15.21 -0.65875
v -8.4 -15.21 -0.65875
v -7.8 -16.5 -0.67125
v -9.13 -16.5 -0.67125
v -9.13 -15.51 -0.67125
v -7.8 -15.51 -0.67125
v -7.2 -16.8 -0.68375
v -8.53 -16.8 -0.68375
v -8.53 -15.81 -0.68375
v -7.2 -15.81 -0.68375
v -6.6 -17.1 -0.69625
v -7.93 -17.1 -0.69625
v -7.93 -16.11 -0.69625
v -6.6 -16.11 -0.69625
v -6 -17.4 -0.70875
v -7.33 -17.4 -0.70875
v -7.33 -16.41 -0.70875
v -6 -16.41 -0.70875
v -5.4 -17.7 -0.72125
v -6.73 -17.7 -0.72125
v -6.73 -16.71 -0.72125
v -5.4 -16.71 -0.72125
v -4.8 -18 -0.73375
v -6.13 -18 -0.73375
v -6.13 -17.01 -0.73375
v -4.8 -17.01 -0.73375
v -4.2 -18.3 -0.74625
v -5.53 -18.3 -0.74625
v -5.53 -17.31 -0.74625
v -4.2 -17.31 -0.74625
v -3.6 -18.6 -0.75875
v -4.93 -18.6 -0.75875
v -4.93 -17.61 -0.75875
v -3.6 -17.61 -0.75875

# Texture cooridinates (Count = 4)
vt 0 0
vt 1 0
vt 1 1
vt 0 1

# Normal
vn 0 0 -1

# Mesh description
g Chai++map_mesh_0005

# Faces
f 1/1/1 2/2/1 3/3/1 4/4/1
f 5/1/1 6/2/1 7/3/1 8/4/1
f 9/1/1 10/2/1 11/3/1 12/4/1
f 13/1/1 14/2/1 15/3/1 16/4/1
f 17/1/1 18/2/1 19/3/1 20/4/1
f 21/1/1 22/2/1 23/3/1 24/4/1
f 25/1/1 26/2/1 27/3/1 28/4/1
f 29/1/1 30/2/1 31/3/1 32/4/1
f 33/1/1 34/2/1 35/3/1 36/4/1
f 37/1/1 38/2/1 39/3/1 40/4/1
f 41/1/1 42/2/1 43/3/1 44/4/1
f 45/1/1 46/2/1 47/3/1 48/4/1
f 49/1/1 50/2/1 51/3/1 52/4/1
f 53/1/1 54/2/1 55/3/1 56/4/1
f 57/1/1 58/2/1 59/3/1 60/4/1
f 61/1/1 62/2/1 63/3/1 64/4/1
f 65/1/1 66/2/1 67/3/1 68/4/1
f 69/1/1 70/2/1 71/3/1 72/4/1
f 73/1/1 74/2/1 75/3/1 76/4/1
f 77/1/1 78/2/1 79/3/1 80/4/1
f 81/1/1 82/2/1 83/3/1 84/4/1
f 85/1/1 86/2/1 87/3/1 88/4/1
f 89/1/1 90/2/1 91/3/1 92/4/1
f 93/1/1 94/2/1 95/3/1 96/4/1
f 97/1/1 98/2/1 99/3/1 100/4/1
f 101/1/1 102/2/1 103/3/1 104/4/1
f 105/1/1 106/2/1 107/3/1 108/4/1
f 109/1/1 110/2/1 111/3/1 112/4/1
f 113/1/1 114/2/1 115/3/1 116/4/1
f 117/1/1 118/2/1 119/3/1 120/4/1
f 121/1/1 122/2/1 123/3/1 124/4/1
f 125/1/1 126/2/1 127/3/1 128/4/1
f 129/1/1 130/2/1 131/3/1 132/4/1
f 133/1/1 134/2/1 135/3/1 136/4/1
f 137/1/1 138/2/1 139/3/1 140/4/1
f 141/1/1 142/2/1 143/3/1 144/4/1
f 145/1/1 146/2/1 147/3/1 148/4/1
f 149/1/1 150/2/1 151/3/1 152/4/1
f 153/1/1 154/2/1 155/3/1 156/4/1
f 157/1/1 158/2/1 159/3/1 160/4/1
f 161/1/1 162/2/1 163/3/1 164/4/1
f 165/1/1 166/2/1 167/3/1 168/4/1
f 169/1/1 170/2/1 171/3/1 172/4/1
f 173/1/1 174/2/1 175/3/1 176/4/1
f 177/1/1 178/2/1 179/3/1 180/4/1
f 181/1/1 182/2/1 183/3/1 184/4/1
f 185/1/1 186/2/1 187/3/1 188/4/1
f 189/1/1 190/2/1 191/3/1 192/4/1
f 193/1/1 194/2/1 195/3/1 196/4/1
f 197/1/1 198/2/1 199/3/1 200/4/1
f 201/1/1 202/2/1 203/3/1 204/4/1
f 205/1/1 206/2/1 207/3/1 208/4/1
f 209/1/1 210/2/1 211/3/1 212/4/1
f 213/1/1 214/2/1 215/3/1 216/4/1
f 217/1/1 218/2/1 219/3/1 220/4/1

