# Tiled2Unity generated file. Do not modify by hand.
# Wavefront file for 'Chai++map_mesh_0010.obj'

# Vertices (Count = 60)
v -39.6 -10.8 -0.43375
v -40.92 -10.8 -0.43375
v -40.92 -9.809999 -0.43375
v -39.6 -9.809999 -0.43375
v -39 -11.1 -0.44625
v -40.32 -11.1 -0.44625
v -40.32 -10.11 -0.44625
v -39 -10.11 -0.44625
v -38.4 -11.4 -0.45875
v -39.72 -11.4 -0.45875
v -39.72 -10.41 -0.45875
v -38.4 -10.41 -0.45875
v -1.8 -17.1 -0.69625
v -3.12 -17.1 -0.69625
v -3.12 -16.11 -0.69625
v -1.8 -16.11 -0.69625
v -12 -22.2 -0.90875
v -13.32 -22.2 -0.90875
v -13.32 -21.21 -0.90875
v -12 -21.21 -0.90875
v -12.6 -22.5 -0.92125
v -13.92 -22.5 -0.92125
v -13.92 -21.51 -0.92125
v -12.6 -21.51 -0.92125
v -13.2 -22.8 -0.93375
v -14.52 -22.8 -0.93375
v -14.52 -21.81 -0.93375
v -13.2 -21.81 -0.93375
v -13.8 -23.1 -0.94625
v -15.12 -23.1 -0.94625
v -15.12 -22.11 -0.94625
v -13.8 -22.11 -0.94625
v -14.4 -23.4 -0.95875
v -15.72 -23.4 -0.95875
v -15.72 -22.41 -0.95875
v -14.4 -22.41 -0.95875
v -1.2 -17.4 -0.70875
v -2.52 -17.4 -0.70875
v -2.52 -16.41 -0.70875
v -1.2 -16.41 -0.70875
v -11.4 -22.5 -0.92125
v -12.72 -22.5 -0.92125
v -12.72 -21.51 -0.92125
v -11.4 -21.51 -0.92125
v -12 -22.8 -0.93375
v -13.32 -22.8 -0.93375
v -13.32 -21.81 -0.93375
v -12 -21.81 -0.93375
v -12.6 -23.1 -0.94625
v -13.92 -23.1 -0.94625
v -13.92 -22.11 -0.94625
v -12.6 -22.11 -0.94625
v -13.2 -23.4 -0.95875
v -14.52 -23.4 -0.95875
v -14.52 -22.41 -0.95875
v -13.2 -22.41 -0.95875
v -13.8 -23.7 -0.97125
v -15.12 -23.7 -0.97125
v -15.12 -22.71 -0.97125
v -13.8 -22.71 -0.97125

# Texture cooridinates (Count = 4)
vt 0 0
vt 1 0
vt 1 1
vt 0 1

# Normal
vn 0 0 -1

# Mesh description
g Chai++map_mesh_0010

# Faces
f 1/1/1 2/2/1 3/3/1 4/4/1
f 5/1/1 6/2/1 7/3/1 8/4/1
f 9/1/1 10/2/1 11/3/1 12/4/1
f 13/1/1 14/2/1 15/3/1 16/4/1
f 17/1/1 18/2/1 19/3/1 20/4/1
f 21/1/1 22/2/1 23/3/1 24/4/1
f 25/1/1 26/2/1 27/3/1 28/4/1
f 29/1/1 30/2/1 31/3/1 32/4/1
f 33/1/1 34/2/1 35/3/1 36/4/1
f 37/1/1 38/2/1 39/3/1 40/4/1
f 41/1/1 42/2/1 43/3/1 44/4/1
f 45/1/1 46/2/1 47/3/1 48/4/1
f 49/1/1 50/2/1 51/3/1 52/4/1
f 53/1/1 54/2/1 55/3/1 56/4/1
f 57/1/1 58/2/1 59/3/1 60/4/1

