# Tiled2Unity generated file. Do not modify by hand.
# Wavefront file for 'Chai++map_mesh_0002.obj'

# Vertices (Count = 220)
v -33 -0.9 -0.007916667
v -34.32 -0.9 -0.007916667
v -34.32 0.41 -0.007916667
v -33 0.41 -0.007916667
v -32.4 -1.2 -0.02041667
v -33.72 -1.2 -0.02041667
v -33.72 0.11 -0.02041667
v -32.4 0.11 -0.02041667
v -31.8 -1.5 -0.03291667
v -33.12 -1.5 -0.03291667
v -33.12 -0.19 -0.03291667
v -31.8 -0.19 -0.03291667
v -31.2 -1.8 -0.04541667
v -32.52 -1.8 -0.04541667
v -32.52 -0.49 -0.04541667
v -31.2 -0.49 -0.04541667
v -30.6 -2.1 -0.05791667
v -31.92 -2.1 -0.05791667
v -31.92 -0.79 -0.05791667
v -30.6 -0.79 -0.05791667
v -30 -2.4 -0.07041667
v -31.32 -2.4 -0.07041667
v -31.32 -1.09 -0.07041667
v -30 -1.09 -0.07041667
v -29.4 -2.7 -0.08291667
v -30.72 -2.7 -0.08291667
v -30.72 -1.39 -0.08291667
v -29.4 -1.39 -0.08291667
v -28.8 -3 -0.09541667
v -30.12 -3 -0.09541667
v -30.12 -1.69 -0.09541667
v -28.8 -1.69 -0.09541667
v -28.2 -3.3 -0.1079167
v -29.52 -3.3 -0.1079167
v -29.52 -1.99 -0.1079167
v -28.2 -1.99 -0.1079167
v -27.6 -3.6 -0.1204167
v -28.92 -3.6 -0.1204167
v -28.92 -2.29 -0.1204167
v -27.6 -2.29 -0.1204167
v -27 -3.9 -0.1329167
v -28.32 -3.9 -0.1329167
v -28.32 -2.59 -0.1329167
v -27 -2.59 -0.1329167
v -26.4 -4.2 -0.1454167
v -27.72 -4.2 -0.1454167
v -27.72 -2.89 -0.1454167
v -26.4 -2.89 -0.1454167
v -25.8 -4.5 -0.1579167
v -27.12 -4.5 -0.1579167
v -27.12 -3.19 -0.1579167
v -25.8 -3.19 -0.1579167
v -25.2 -4.8 -0.1704167
v -26.52 -4.8 -0.1704167
v -26.52 -3.49 -0.1704167
v -25.2 -3.49 -0.1704167
v -24.6 -5.1 -0.1829167
v -25.92 -5.1 -0.1829167
v -25.92 -3.79 -0.1829167
v -24.6 -3.79 -0.1829167
v -24 -5.4 -0.1954167
v -25.32 -5.4 -0.1954167
v -25.32 -4.09 -0.1954167
v -24 -4.09 -0.1954167
v -23.4 -5.7 -0.2079167
v -24.72 -5.7 -0.2079167
v -24.72 -4.39 -0.2079167
v -23.4 -4.39 -0.2079167
v -22.8 -6 -0.2204167
v -24.12 -6 -0.2204167
v -24.12 -4.69 -0.2204167
v -22.8 -4.69 -0.2204167
v -22.2 -6.3 -0.2329167
v -23.52 -6.3 -0.2329167
v -23.52 -4.99 -0.2329167
v -22.2 -4.99 -0.2329167
v -21.6 -6.6 -0.2454167
v -22.92 -6.6 -0.2454167
v -22.92 -5.29 -0.2454167
v -21.6 -5.29 -0.2454167
v -21 -6.9 -0.2579167
v -22.32 -6.9 -0.2579167
v -22.32 -5.59 -0.2579167
v -21 -5.59 -0.2579167
v -20.4 -7.2 -0.2704167
v -21.72 -7.2 -0.2704167
v -21.72 -5.89 -0.2704167
v -20.4 -5.89 -0.2704167
v -19.8 -7.5 -0.2829167
v -21.12 -7.5 -0.2829167
v -21.12 -6.19 -0.2829167
v -19.8 -6.19 -0.2829167
v -19.2 -7.8 -0.2954167
v -20.52 -7.8 -0.2954167
v -20.52 -6.49 -0.2954167
v -19.2 -6.49 -0.2954167
v -18.6 -8.099999 -0.3079167
v -19.92 -8.099999 -0.3079167
v -19.92 -6.79 -0.3079167
v -18.6 -6.79 -0.3079167
v -18 -8.4 -0.3204167
v -19.32 -8.4 -0.3204167
v -19.32 -7.09 -0.3204167
v -18 -7.09 -0.3204167
v -17.4 -8.7 -0.3329167
v -18.72 -8.7 -0.3329167
v -18.72 -7.39 -0.3329167
v -17.4 -7.39 -0.3329167
v -16.8 -9 -0.3454167
v -18.12 -9 -0.3454167
v -18.12 -7.69 -0.3454167
v -16.8 -7.69 -0.3454167
v -16.2 -9.3 -0.3579167
v -17.52 -9.3 -0.3579167
v -17.52 -7.99 -0.3579167
v -16.2 -7.99 -0.3579167
v -15.6 -9.599999 -0.3704167
v -16.92 -9.599999 -0.3704167
v -16.92 -8.29 -0.3704167
v -15.6 -8.29 -0.3704167
v -15 -9.9 -0.3829167
v -16.32 -9.9 -0.3829167
v -16.32 -8.59 -0.3829167
v -15 -8.59 -0.3829167
v -14.4 -10.2 -0.3954167
v -15.72 -10.2 -0.3954167
v -15.72 -8.889999 -0.3954167
v -14.4 -8.889999 -0.3954167
v -13.8 -10.5 -0.4079167
v -15.12 -10.5 -0.4079167
v -15.12 -9.19 -0.4079167
v -13.8 -9.19 -0.4079167
v -13.2 -10.8 -0.4204167
v -14.52 -10.8 -0.4204167
v -14.52 -9.49 -0.4204167
v -13.2 -9.49 -0.4204167
v -12.6 -11.1 -0.4329167
v -13.92 -11.1 -0.4329167
v -13.92 -9.79 -0.4329167
v -12.6 -9.79 -0.4329167
v -12 -11.4 -0.4454167
v -13.32 -11.4 -0.4454167
v -13.32 -10.09 -0.4454167
v -12 -10.09 -0.4454167
v -11.4 -11.7 -0.4579167
v -12.72 -11.7 -0.4579167
v -12.72 -10.39 -0.4579167
v -11.4 -10.39 -0.4579167
v -10.8 -12 -0.4704167
v -12.12 -12 -0.4704167
v -12.12 -10.69 -0.4704167
v -10.8 -10.69 -0.4704167
v -10.2 -12.3 -0.4829167
v -11.52 -12.3 -0.4829167
v -11.52 -10.99 -0.4829167
v -10.2 -10.99 -0.4829167
v -9.599999 -12.6 -0.4954167
v -10.92 -12.6 -0.4954167
v -10.92 -11.29 -0.4954167
v -9.599999 -11.29 -0.4954167
v -9 -12.9 -0.5079167
v -10.32 -12.9 -0.5079167
v -10.32 -11.59 -0.5079167
v -9 -11.59 -0.5079167
v -8.4 -13.2 -0.5204167
v -9.719999 -13.2 -0.5204167
v -9.719999 -11.89 -0.5204167
v -8.4 -11.89 -0.5204167
v -7.8 -13.5 -0.5329167
v -9.12 -13.5 -0.5329167
v -9.12 -12.19 -0.5329167
v -7.8 -12.19 -0.5329167
v -7.2 -13.8 -0.5454167
v -8.52 -13.8 -0.5454167
v -8.52 -12.49 -0.5454167
v -7.2 -12.49 -0.5454167
v -6.6 -14.1 -0.5579166
v -7.92 -14.1 -0.5579166
v -7.92 -12.79 -0.5579166
v -6.6 -12.79 -0.5579166
v -6 -14.4 -0.5704167
v -7.32 -14.4 -0.5704167
v -7.32 -13.09 -0.5704167
v -6 -13.09 -0.5704167
v -5.4 -14.7 -0.5829167
v -6.72 -14.7 -0.5829167
v -6.72 -13.39 -0.5829167
v -5.4 -13.39 -0.5829167
v -4.8 -15 -0.5954167
v -6.12 -15 -0.5954167
v -6.12 -13.69 -0.5954167
v -4.8 -13.69 -0.5954167
v -4.2 -15.3 -0.6079167
v -5.52 -15.3 -0.6079167
v -5.52 -13.99 -0.6079167
v -4.2 -13.99 -0.6079167
v -3.6 -15.6 -0.6204166
v -4.92 -15.6 -0.6204166
v -4.92 -14.29 -0.6204166
v -3.6 -14.29 -0.6204166
v -3 -15.9 -0.6329167
v -4.32 -15.9 -0.6329167
v -4.32 -14.59 -0.6329167
v -3 -14.59 -0.6329167
v -2.4 -16.2 -0.6454167
v -3.72 -16.2 -0.6454167
v -3.72 -14.89 -0.6454167
v -2.4 -14.89 -0.6454167
v -1.8 -16.5 -0.6579167
v -3.12 -16.5 -0.6579167
v -3.12 -15.19 -0.6579167
v -1.8 -15.19 -0.6579167
v -1.2 -16.8 -0.6704167
v -2.52 -16.8 -0.6704167
v -2.52 -15.49 -0.6704167
v -1.2 -15.49 -0.6704167
v -0.6 -17.1 -0.6829166
v -1.92 -17.1 -0.6829166
v -1.92 -15.79 -0.6829166
v -0.6 -15.79 -0.6829166

# Texture cooridinates (Count = 4)
vt 0 0
vt 1 0
vt 1 1
vt 0 1

# Normal
vn 0 0 -1

# Mesh description
g Chai++map_mesh_0002

# Faces
f 1/1/1 2/2/1 3/3/1 4/4/1
f 5/1/1 6/2/1 7/3/1 8/4/1
f 9/1/1 10/2/1 11/3/1 12/4/1
f 13/1/1 14/2/1 15/3/1 16/4/1
f 17/1/1 18/2/1 19/3/1 20/4/1
f 21/1/1 22/2/1 23/3/1 24/4/1
f 25/1/1 26/2/1 27/3/1 28/4/1
f 29/1/1 30/2/1 31/3/1 32/4/1
f 33/1/1 34/2/1 35/3/1 36/4/1
f 37/1/1 38/2/1 39/3/1 40/4/1
f 41/1/1 42/2/1 43/3/1 44/4/1
f 45/1/1 46/2/1 47/3/1 48/4/1
f 49/1/1 50/2/1 51/3/1 52/4/1
f 53/1/1 54/2/1 55/3/1 56/4/1
f 57/1/1 58/2/1 59/3/1 60/4/1
f 61/1/1 62/2/1 63/3/1 64/4/1
f 65/1/1 66/2/1 67/3/1 68/4/1
f 69/1/1 70/2/1 71/3/1 72/4/1
f 73/1/1 74/2/1 75/3/1 76/4/1
f 77/1/1 78/2/1 79/3/1 80/4/1
f 81/1/1 82/2/1 83/3/1 84/4/1
f 85/1/1 86/2/1 87/3/1 88/4/1
f 89/1/1 90/2/1 91/3/1 92/4/1
f 93/1/1 94/2/1 95/3/1 96/4/1
f 97/1/1 98/2/1 99/3/1 100/4/1
f 101/1/1 102/2/1 103/3/1 104/4/1
f 105/1/1 106/2/1 107/3/1 108/4/1
f 109/1/1 110/2/1 111/3/1 112/4/1
f 113/1/1 114/2/1 115/3/1 116/4/1
f 117/1/1 118/2/1 119/3/1 120/4/1
f 121/1/1 122/2/1 123/3/1 124/4/1
f 125/1/1 126/2/1 127/3/1 128/4/1
f 129/1/1 130/2/1 131/3/1 132/4/1
f 133/1/1 134/2/1 135/3/1 136/4/1
f 137/1/1 138/2/1 139/3/1 140/4/1
f 141/1/1 142/2/1 143/3/1 144/4/1
f 145/1/1 146/2/1 147/3/1 148/4/1
f 149/1/1 150/2/1 151/3/1 152/4/1
f 153/1/1 154/2/1 155/3/1 156/4/1
f 157/1/1 158/2/1 159/3/1 160/4/1
f 161/1/1 162/2/1 163/3/1 164/4/1
f 165/1/1 166/2/1 167/3/1 168/4/1
f 169/1/1 170/2/1 171/3/1 172/4/1
f 173/1/1 174/2/1 175/3/1 176/4/1
f 177/1/1 178/2/1 179/3/1 180/4/1
f 181/1/1 182/2/1 183/3/1 184/4/1
f 185/1/1 186/2/1 187/3/1 188/4/1
f 189/1/1 190/2/1 191/3/1 192/4/1
f 193/1/1 194/2/1 195/3/1 196/4/1
f 197/1/1 198/2/1 199/3/1 200/4/1
f 201/1/1 202/2/1 203/3/1 204/4/1
f 205/1/1 206/2/1 207/3/1 208/4/1
f 209/1/1 210/2/1 211/3/1 212/4/1
f 213/1/1 214/2/1 215/3/1 216/4/1
f 217/1/1 218/2/1 219/3/1 220/4/1

